<svg width="24" height="24" viewBox="0 0 24 24" fill="none" xmlns="http://www.w3.org/2000/svg">
<path d="M3.59961 7.19961C3.59961 6.24483 3.97889 5.32916 4.65402 4.65402C5.32916 3.97889 6.24483 3.59961 7.19961 3.59961H16.7996C17.7544 3.59961 18.6701 3.97889 19.3452 4.65402C20.0203 5.32916 20.3996 6.24483 20.3996 7.19961V16.7996C20.3996 17.7544 20.0203 18.6701 19.3452 19.3452C18.6701 20.0203 17.7544 20.3996 16.7996 20.3996H7.19961C6.24483 20.3996 5.32916 20.0203 4.65402 19.3452C3.97889 18.6701 3.59961 17.7544 3.59961 16.7996V7.19961ZM7.19961 5.39961C6.72222 5.39961 6.26438 5.58925 5.92682 5.92682C5.58925 6.26438 5.39961 6.72222 5.39961 7.19961V16.7996C5.39961 17.277 5.58925 17.7348 5.92682 18.0724C6.26438 18.41 6.72222 18.5996 7.19961 18.5996H16.7996C17.277 18.5996 17.7348 18.41 18.0724 18.0724C18.41 17.7348 18.5996 17.277 18.5996 16.7996V7.19961C18.5996 6.72222 18.41 6.26438 18.0724 5.92682C17.7348 5.58925 17.277 5.39961 16.7996 5.39961H7.19961Z" fill="#272424"/>
</svg>
