<svg width="25" height="24" viewBox="0 0 25 24" fill="none" xmlns="http://www.w3.org/2000/svg">
<path d="M20.5 9H4.5M7.5 3V5M17.5 3V5M16.5 15.5C16.5 16.3284 15.8284 17 15 17C14.1716 17 13.5 16.3284 13.5 15.5C13.5 14.6716 14.1716 14 15 14C15.8284 14 16.5 14.6716 16.5 15.5ZM6.5 21H18.5C19.6046 21 20.5 20.1046 20.5 19V7C20.5 5.89543 19.6046 5 18.5 5H6.5C5.39543 5 4.5 5.89543 4.5 7V19C4.5 20.1046 5.39543 21 6.5 21Z" stroke="#272424" stroke-width="2" stroke-linecap="round" stroke-linejoin="round"/>
</svg>
