<svg width="32" height="32" viewBox="0 0 32 32" fill="none" xmlns="http://www.w3.org/2000/svg">
<path d="M5.3335 22.6663L10.5898 17.9357C11.3804 17.2241 12.5897 17.2559 13.3419 18.0081L15.3335 19.9997L20.5859 14.7472C21.367 13.9662 22.6333 13.9662 23.4144 14.7472L26.6668 17.9997M14.6668 11.9997C14.6668 12.7361 14.0699 13.333 13.3335 13.333C12.5971 13.333 12.0002 12.7361 12.0002 11.9997C12.0002 11.2633 12.5971 10.6663 13.3335 10.6663C14.0699 10.6663 14.6668 11.2633 14.6668 11.9997ZM7.3335 26.6663H24.6668C25.7714 26.6663 26.6668 25.7709 26.6668 24.6663V7.33301C26.6668 6.22844 25.7714 5.33301 24.6668 5.33301H7.3335C6.22893 5.33301 5.3335 6.22844 5.3335 7.33301V24.6663C5.3335 25.7709 6.22893 26.6663 7.3335 26.6663Z" stroke="#E04D30" stroke-width="1.4" stroke-linecap="round" stroke-linejoin="round"/>
</svg>
