<svg width="30" height="30" viewBox="0 0 30 30" fill="none" xmlns="http://www.w3.org/2000/svg">
<path fill-rule="evenodd" clip-rule="evenodd" d="M13.75 2.5C16.1663 2.5 18.1251 4.45873 18.1251 6.87496C18.1251 9.21068 16.2947 11.1189 13.9901 11.2435L13.75 11.25C11.3338 11.25 9.37502 9.29125 9.37502 6.87496C9.37502 4.5393 11.2054 2.63102 13.51 2.50645L13.75 2.5ZM5 25H16.0034C15.5562 24.2273 15.2515 23.3805 15.1037 22.5H7.50002V20.5L7.50652 20.2573C7.62705 18.0094 9.4117 16.25 11.5625 16.25H15.9375L16.1665 16.2566C16.3897 16.2697 16.6083 16.3017 16.8209 16.3511C17.4529 15.6188 18.2201 15.0151 19.0806 14.5731C18.1472 14.0483 17.0762 13.75 15.9375 13.75H11.5625L11.292 13.7556C7.7931 13.9015 5 16.8653 5 20.5V25ZM11.875 6.87496C11.875 5.83943 12.7145 4.99996 13.75 4.99996C14.7856 4.99996 15.625 5.83943 15.625 6.87496C15.625 7.91049 14.7856 8.74996 13.75 8.74996C12.7145 8.74996 11.875 7.91049 11.875 6.87496ZM18.8264 26.3063L22.5 24.0625L26.1737 26.3063L25.1749 22.1191L28.4441 19.3186L24.1532 18.9746L22.5 15L20.8469 18.9746L16.5559 19.3186L19.8252 22.1191L18.8264 26.3063Z" fill="black"/>
</svg>
