<svg width="18" height="20" viewBox="0 0 18 20" fill="none" xmlns="http://www.w3.org/2000/svg">
<path d="M6.65202 2.56614C6.85537 1.65106 7.667 1 8.6044 1H9.39571C10.3331 1 11.1447 1.65106 11.3481 2.56614L11.551 3.47935C12.2121 3.73819 12.8243 4.09467 13.3697 4.53105L14.2639 4.24961C15.1581 3.96818 16.1277 4.34554 16.5964 5.15735L16.9921 5.84264C17.4608 6.65445 17.3028 7.68287 16.612 8.31652L15.9218 8.94961C15.9733 9.29223 16.0001 9.643 16.0001 10C16.0001 10.357 15.9733 10.7078 15.9218 11.0504L16.612 11.6835C17.3028 12.3171 17.4608 13.3455 16.9921 14.1574L16.5965 14.8426C16.1278 15.6545 15.1581 16.0318 14.2639 15.7504L13.3698 15.4689C12.8243 15.9053 12.2121 16.2618 11.551 16.5206L11.3481 17.4339C11.1447 18.3489 10.3331 19 9.39571 19H8.6044C7.667 19 6.85537 18.3489 6.65202 17.4339L6.44909 16.5206C5.78796 16.2618 5.17579 15.9053 4.63034 15.4689L3.73614 15.7504C2.84199 16.0318 1.87234 15.6545 1.40364 14.8426L1.00798 14.1573C0.539284 13.3455 0.697308 12.3171 1.38811 11.6835L2.07833 11.0504C2.02678 10.7077 2.00005 10.357 2.00005 10C2.00005 9.643 2.02678 9.29225 2.07833 8.94962L1.38813 8.31652C0.697322 7.68288 0.539297 6.65446 1.008 5.84265L1.40365 5.15735C1.87235 4.34554 2.842 3.96818 3.73616 4.24962L4.63035 4.53106C5.1758 4.09467 5.78796 3.73819 6.44909 3.47935L6.65202 2.56614Z" stroke="white" stroke-width="1.4" stroke-linecap="round" stroke-linejoin="round"/>
<path d="M10 10C10 10.5523 9.55232 11 9.00003 11C8.44775 11 8.00003 10.5523 8.00003 10C8.00003 9.44772 8.44775 9 9.00003 9C9.55232 9 10 9.44772 10 10Z" stroke="white" stroke-width="1.4" stroke-linecap="round" stroke-linejoin="round"/>
</svg>
