<svg width="26" height="24" viewBox="0 0 26 24" fill="none" xmlns="http://www.w3.org/2000/svg">
<path d="M15.6351 22.7507H9.89156C4.63728 22.7507 2.40369 20.6407 2.40369 15.7107V11.2207C2.40369 10.8107 2.76532 10.4707 3.2014 10.4707C3.63748 10.4707 3.99911 10.8107 3.99911 11.2207V15.7107C3.99911 19.8007 5.54136 21.2507 9.89156 21.2507H15.6245C19.9747 21.2507 21.5169 19.8007 21.5169 15.7107V11.2207C21.5169 10.8107 21.8785 10.4707 22.3146 10.4707C22.7507 10.4707 23.1123 10.8107 23.1123 11.2207V15.7107C23.123 20.6407 20.8787 22.7507 15.6351 22.7507Z" fill="black"/>
<path d="M12.7634 12.75C11.5934 12.75 10.5298 12.32 9.77466 11.53C9.01949 10.74 8.66849 9.71 8.78549 8.61L9.49812 1.93C9.54066 1.55 9.88102 1.25 10.2958 1.25H15.2629C15.6777 1.25 16.0181 1.54 16.0606 1.93L16.7733 8.61C16.8903 9.71 16.5393 10.74 15.7841 11.53C14.997 12.32 13.9334 12.75 12.7634 12.75ZM11.0085 2.75L10.3703 8.76C10.2958 9.43 10.5086 10.06 10.9553 10.52C11.8593 11.46 13.6675 11.46 14.5716 10.52C15.0183 10.05 15.231 9.42 15.1566 8.76L14.5184 2.75H11.0085Z" fill="black"/>
<path d="M19.4748 12.75C17.3157 12.75 15.3905 11.11 15.1672 9.09L14.4226 2.08C14.4014 1.87 14.4758 1.66 14.6247 1.5C14.7736 1.34 14.9864 1.25 15.2204 1.25H18.4644C21.5914 1.25 23.0486 2.48 23.4847 5.5L23.7825 8.28C23.9101 9.46 23.5272 10.58 22.7082 11.43C21.8892 12.28 20.7405 12.75 19.4748 12.75ZM16.1032 2.75L16.7626 8.94C16.9009 10.19 18.1347 11.25 19.4748 11.25C20.2832 11.25 21.0064 10.96 21.5276 10.43C22.0381 9.9 22.2721 9.19 22.1977 8.43L21.8999 5.68C21.5702 3.42 20.7937 2.75 18.4644 2.75H16.1032Z" fill="black"/>
<path d="M5.99872 12.75C4.73302 12.75 3.58431 12.28 2.76533 11.43C1.94634 10.58 1.56344 9.46 1.69107 8.28L1.97825 5.53C2.42497 2.48 3.88212 1.25 7.00916 1.25H10.2532C10.4766 1.25 10.6893 1.34 10.8488 1.5C11.0084 1.66 11.0722 1.87 11.0509 2.08L10.3064 9.09C10.083 11.11 8.15787 12.75 5.99872 12.75ZM7.00916 2.75C4.67984 2.75 3.9034 3.41 3.56304 5.7L3.27586 8.43C3.19077 9.19 3.43541 9.9 3.94594 10.43C4.45648 10.96 5.17974 11.25 5.99872 11.25C7.33888 11.25 8.58332 10.19 8.71095 8.94L9.3704 2.75H7.00916Z" fill="black"/>
<path d="M15.4224 22.75H10.1044C9.66827 22.75 9.30664 22.41 9.30664 22V19.5C9.30664 17.4 10.5298 16.25 12.7634 16.25C14.997 16.25 16.2202 17.4 16.2202 19.5V22C16.2202 22.41 15.8585 22.75 15.4224 22.75ZM10.9021 21.25H14.6247V19.5C14.6247 18.24 14.1036 17.75 12.7634 17.75C11.4232 17.75 10.9021 18.24 10.9021 19.5V21.25Z" fill="black"/>
</svg>
