<svg width="24" height="24" viewBox="0 0 24 24" fill="none" xmlns="http://www.w3.org/2000/svg">
<path d="M12 7.5V19.5002M12 7.5L13.7333 6.63344C14.5663 6.21698 15.4849 6.00015 16.4162 6.00012L18.9999 6.00005C20.1045 6.00002 21 6.89546 21 8.00005V16C21 17.1046 20.1046 18 19 18H16.4166C15.485 18 14.5662 18.2169 13.733 18.6336L12 19.5002M12 7.5L10.2667 6.6335C9.43369 6.21705 8.51514 6.00024 7.58379 6.00024H5C3.89543 6.00024 3 6.89567 3 8.00024V16.0002C3 17.1048 3.89543 18.0002 5 18.0002H7.58359C8.51506 18.0002 9.43374 18.2171 10.2669 18.6337L12 19.5002" stroke="#F3F3F3" stroke-width="2" stroke-linecap="round" stroke-linejoin="round"/>
</svg>
