<svg width="24" height="24" viewBox="0 0 24 24" fill="none" xmlns="http://www.w3.org/2000/svg">
<path fill-rule="evenodd" clip-rule="evenodd" d="M7.99985 4C11.3135 4 13.9998 6.68635 13.9998 10C13.9998 11.9505 13.0683 13.6825 11.6268 14.7783C13.3069 15.529 14.7784 16.7958 15.8426 18.4609C16.1399 18.9261 16.0039 19.5443 15.5389 19.8418C15.0735 20.1392 14.4545 20.0035 14.1571 19.5381C12.7348 17.3127 10.4376 15.9999 7.99985 16C5.56221 16.0001 3.26474 17.3128 1.84262 19.5381C1.54528 20.0034 0.927131 20.14 0.461764 19.8428C-0.00352832 19.5455 -0.140065 18.9273 0.157076 18.4619C1.22101 16.7969 2.69217 15.5291 4.37192 14.7783C2.93084 13.6824 1.99985 11.9501 1.99985 10C1.99991 6.68639 4.68624 4.00007 7.99985 4ZM14.7137 4.22949C16.8792 3.58319 19.2001 4.3293 20.6483 6.12598C22.0785 7.90049 22.4019 10.3809 21.4832 12.4922C21.076 13.428 20.4554 14.2175 19.6981 14.8096C21.349 15.564 22.7942 16.8189 23.8426 18.4619C24.1396 18.9274 24.0033 19.5457 23.5379 19.8428C23.0724 20.1398 22.4542 20.0036 22.1571 19.5381C20.7363 17.3113 18.4385 15.9981 16.0008 16C15.4486 16.0004 15.0003 15.5532 14.9998 15.001C14.9994 14.4488 15.4467 14.0006 15.9989 14C16.0685 13.9999 16.1384 14.0013 16.2079 14.0029C16.2317 14.0012 16.2558 14 16.2801 14C17.7174 13.9998 19.0347 13.1065 19.6493 11.6943C20.2723 10.2626 20.0519 8.57335 19.0907 7.38086C18.1473 6.21063 16.6655 5.73383 15.286 6.14551C14.7568 6.30346 14.1998 6.00285 14.0418 5.47363C13.8839 4.9445 14.1847 4.38754 14.7137 4.22949ZM7.99985 6C5.79081 6.00007 3.99991 7.79096 3.99985 10C3.99985 12.2091 5.79077 13.9999 7.99985 14C10.209 14 11.9998 12.2091 11.9998 10C11.9998 7.79092 10.2089 6 7.99985 6Z" fill="#F3F3F3"/>
</svg>
