<svg width="29" height="29" viewBox="0 0 29 29" fill="none" xmlns="http://www.w3.org/2000/svg">
<path d="M24.0234 8.5287L14.0625 14.0626L24.0234 8.5287ZM14.0625 14.0626L4.10153 8.5287L14.0625 14.0626ZM14.0625 14.0626V25.1954V14.0626ZM24.6094 14.0626V9.30647C24.6094 8.90494 24.6094 8.70418 24.5502 8.52511C24.4979 8.3667 24.4123 8.22129 24.2993 8.09861C24.1714 7.95993 23.996 7.86243 23.6449 7.66743L14.973 2.84972C14.6407 2.66508 14.4745 2.57276 14.2986 2.53656C14.1428 2.50454 13.9822 2.50454 13.8265 2.53656C13.6505 2.57276 13.4843 2.66508 13.152 2.84972L4.48004 7.66743C4.12904 7.86243 3.95353 7.95993 3.82574 8.09861C3.71269 8.22129 3.62713 8.3667 3.57478 8.52511C3.51562 8.70418 3.51562 8.90494 3.51562 9.30647V18.8187C3.51562 19.2203 3.51562 19.421 3.57478 19.6001C3.62713 19.7585 3.71269 19.9039 3.82574 20.0265C3.95353 20.1653 4.12905 20.2628 4.48004 20.4578L13.152 25.2755C13.4843 25.4601 13.6505 25.5524 13.8265 25.5886C13.9822 25.6207 14.1428 25.6207 14.2986 25.5886C14.4745 25.5524 14.6407 25.4601 14.973 25.2755L15.2344 25.1303M8.78906 5.27352L19.3359 11.1329L8.78906 5.27352ZM25.7812 25.1954L24.6094 24.0235L25.7812 25.1954ZM25.7812 21.0939C25.7812 23.0354 24.2073 24.6095 22.2656 24.6095C20.3239 24.6095 18.75 23.0354 18.75 21.0939C18.75 19.1522 20.3239 17.5782 22.2656 17.5782C24.2073 17.5782 25.7812 19.1522 25.7812 21.0939Z" fill="white"/>
<path d="M24.0234 8.5287L14.0625 14.0626M14.0625 14.0626L4.10153 8.5287M14.0625 14.0626V25.1954M24.6094 14.0626V9.30647C24.6094 8.90494 24.6094 8.70418 24.5502 8.52511C24.4979 8.3667 24.4123 8.22129 24.2993 8.09861C24.1714 7.95993 23.996 7.86243 23.6449 7.66743L14.973 2.84972C14.6407 2.66508 14.4745 2.57276 14.2986 2.53656C14.1428 2.50454 13.9822 2.50454 13.8265 2.53656C13.6505 2.57276 13.4843 2.66508 13.152 2.84972L4.48004 7.66743C4.12904 7.86243 3.95353 7.95993 3.82574 8.09861C3.71269 8.22129 3.62713 8.3667 3.57478 8.52511C3.51562 8.70418 3.51562 8.90494 3.51562 9.30647V18.8187C3.51562 19.2203 3.51562 19.421 3.57478 19.6001C3.62713 19.7585 3.71269 19.9039 3.82574 20.0265C3.95353 20.1653 4.12905 20.2628 4.48004 20.4578L13.152 25.2755C13.4843 25.4601 13.6505 25.5524 13.8265 25.5886C13.9822 25.6207 14.1428 25.6207 14.2986 25.5886C14.4745 25.5524 14.6407 25.4601 14.973 25.2755L15.2344 25.1303M8.78906 5.27352L19.3359 11.1329M25.7812 25.1954L24.6094 24.0235M25.7812 21.0939C25.7812 23.0354 24.2073 24.6095 22.2656 24.6095C20.3239 24.6095 18.75 23.0354 18.75 21.0939C18.75 19.1522 20.3239 17.5782 22.2656 17.5782C24.2073 17.5782 25.7812 19.1522 25.7812 21.0939Z" stroke="#454545" stroke-width="2" stroke-linecap="round" stroke-linejoin="round"/>
</svg>
