<svg width="40" height="40" viewBox="0 0 40 40" fill="none" xmlns="http://www.w3.org/2000/svg">
<path fill-rule="evenodd" clip-rule="evenodd" d="M7.5 33.75C7.16848 33.75 6.85054 33.6183 6.61612 33.3839C6.3817 33.1495 6.25 32.8315 6.25 32.5V7.5C6.25 7.16848 6.3817 6.85054 6.61612 6.61612C6.85054 6.3817 7.16848 6.25 7.5 6.25H30.625C31.1223 6.25 31.5992 6.05246 31.9508 5.70083C32.3024 5.34919 32.5 4.87228 32.5 4.375C32.5 3.87772 32.3024 3.40081 31.9508 3.04917C31.5992 2.69754 31.1223 2.5 30.625 2.5H7.5C6.17392 2.5 4.90215 3.02678 3.96447 3.96447C3.02678 4.90215 2.5 6.17392 2.5 7.5V32.5C2.5 33.8261 3.02678 35.0979 3.96447 36.0355C4.90215 36.9732 6.17392 37.5 7.5 37.5H32.5C33.8261 37.5 35.0978 36.9732 36.0355 36.0355C36.9732 35.0979 37.5 33.8261 37.5 32.5V24.375C37.5 23.8777 37.3024 23.4008 36.9508 23.0492C36.5992 22.6975 36.1223 22.5 35.625 22.5C35.1277 22.5 34.6508 22.6975 34.2992 23.0492C33.9475 23.4008 33.75 23.8777 33.75 24.375V32.5C33.75 32.8315 33.6183 33.1495 33.3839 33.3839C33.1495 33.6183 32.8315 33.75 32.5 33.75H7.5ZM39.45 11.7C39.7812 11.3446 39.9615 10.8744 39.9529 10.3887C39.9444 9.90294 39.7476 9.43948 39.404 9.09595C39.0605 8.75241 38.597 8.55563 38.1113 8.54706C37.6255 8.53849 37.1554 8.7188 36.8 9.05L22.905 22.9425L18.2225 18.1025C18.0517 17.924 17.8472 17.781 17.6209 17.6818C17.3946 17.5825 17.151 17.529 16.9039 17.5242C16.6569 17.5195 16.4113 17.5636 16.1814 17.6541C15.9515 17.7445 15.7417 17.8796 15.5641 18.0514C15.3865 18.2232 15.2447 18.4284 15.1467 18.6552C15.0487 18.8821 14.9965 19.126 14.9931 19.3731C14.9897 19.6201 15.0351 19.8654 15.1268 20.0949C15.2186 20.3243 15.3547 20.5334 15.5275 20.71L21.535 26.92C21.7078 27.0993 21.9147 27.2423 22.1434 27.3408C22.3722 27.4392 22.6182 27.4912 22.8673 27.4935C23.1163 27.4958 23.3633 27.4485 23.5938 27.3543C23.8243 27.2602 24.0338 27.121 24.21 26.945L39.45 11.7Z" fill="#04910C"/>
</svg>
